<?xml version="1.0" ?><svg viewBox="0 0 512 512" xmlns="http://www.w3.org/2000/svg"><defs><style>.cls-1{fill:#7f8c8d;}.cls-2{fill:#202d40;}.cls-3{fill:#2e4060;}.cls-4{fill:#c0402b;}</style></defs><title/><g id="Google"><g id="Gcalendar"><path class="cls-1" d="M433.78,37.66H78.2A20.06,20.06,0,0,0,58.15,57.73v66.72h395.7V57.73A20.08,20.08,0,0,0,433.78,37.66ZM160,77.81a9.61,9.61,0,1,1,9.6-9.61A9.61,9.61,0,0,1,160,77.81Zm194.59,0a9.61,9.61,0,1,1,9.61-9.61A9.61,9.61,0,0,1,354.55,77.81Z"/><path class="cls-2" d="M483.56,129.11,453.21,287.37,465.61,452a20.83,20.83,0,0,1-20.77,22.38H67.15A20.83,20.83,0,0,1,46.38,452L58.79,287.37,28.44,129.11a24.15,24.15,0,0,1,23.72-28.7H459.83A24.15,24.15,0,0,1,483.56,129.11Z"/><path class="cls-3" d="M444.84,474.34H67.15A20.83,20.83,0,0,1,46.38,452L58.79,287.37H453.21L465.61,452A20.83,20.83,0,0,1,444.84,474.34Z"/><path class="cls-4" d="M248.32,246.08c0-30.9-25.86-56-57.63-56s-57.63,25.13-57.63,56h19.21c0-20.31,17.24-36.82,38.42-36.82s38.42,16.51,38.42,36.82-17.24,36.81-38.42,36.81H172.76V302.1h17.93c21.18,0,38.42,16.52,38.42,36.82s-17.24,36.82-38.42,36.82-38.42-16.52-38.42-36.82H133.06c0,30.89,25.85,56,57.63,56s57.63-25.13,57.63-56a55.61,55.61,0,0,0-25.4-46.42A55.62,55.62,0,0,0,248.32,246.08Z"/><polygon class="cls-4" points="285.65 222.78 295.5 239.27 333.48 216.58 333.48 385.34 352.68 385.34 352.68 182.73 285.65 222.78"/></g></g></svg>